<?xml version="1.0" encoding="utf-8"?>
<!-- Generator: Adobe Illustrator 29.8.1, SVG Export Plug-In . SVG Version: 9.03 Build 0)  -->
<svg version="1.0" id="Layer_1" xmlns="http://www.w3.org/2000/svg" xmlns:xlink="http://www.w3.org/1999/xlink" x="0px" y="0px"
	 viewBox="0 0 100 100" style="enable-background:new 0 0 100 100;" xml:space="preserve">
<style type="text/css">
	.st0{fill:#378C84;}
</style>
<path class="st0" d="M96.32,22.86H39.77c-1.84,0-2.89,1.42-2.34,3.18l8.95,26.21c0.44,1.41,2,2.56,3.48,2.56h37.08
	c1.48,0,3.04-1.15,3.48-2.56l7.8-26.83C98.65,24.01,97.81,22.86,96.32,22.86z"/>
<path class="st0" d="M53.34,85c0,0.28-0.01,0.55-0.04,0.83c-0.03,0.28-0.07,0.55-0.12,0.82c-0.05,0.27-0.12,0.54-0.2,0.81
	c-0.08,0.26-0.17,0.53-0.28,0.78c-0.11,0.26-0.22,0.51-0.35,0.75c-0.13,0.24-0.27,0.48-0.43,0.71s-0.32,0.45-0.49,0.67
	c-0.18,0.21-0.36,0.42-0.56,0.62c-0.2,0.2-0.4,0.38-0.62,0.56c-0.21,0.18-0.44,0.34-0.67,0.49c-0.23,0.15-0.47,0.3-0.71,0.43
	c-0.24,0.13-0.49,0.25-0.75,0.35c-0.26,0.11-0.52,0.2-0.78,0.28c-0.27,0.08-0.53,0.15-0.81,0.2c-0.27,0.05-0.55,0.09-0.82,0.12
	c-0.28,0.03-0.55,0.04-0.83,0.04s-0.55-0.01-0.83-0.04c-0.28-0.03-0.55-0.07-0.82-0.12c-0.27-0.05-0.54-0.12-0.81-0.2
	c-0.26-0.08-0.53-0.17-0.78-0.28c-0.26-0.11-0.51-0.22-0.75-0.35c-0.24-0.13-0.48-0.27-0.71-0.43c-0.23-0.15-0.45-0.32-0.67-0.49
	s-0.42-0.36-0.62-0.56c-0.2-0.2-0.38-0.4-0.56-0.62c-0.18-0.21-0.34-0.44-0.49-0.67s-0.3-0.47-0.43-0.71
	c-0.13-0.24-0.25-0.49-0.35-0.75c-0.11-0.26-0.2-0.52-0.28-0.78c-0.08-0.27-0.15-0.53-0.2-0.81c-0.05-0.27-0.1-0.55-0.12-0.82
	c-0.03-0.28-0.04-0.55-0.04-0.83c0-0.28,0.01-0.55,0.04-0.83c0.03-0.28,0.07-0.55,0.12-0.82c0.05-0.27,0.12-0.54,0.2-0.81
	c0.08-0.26,0.17-0.53,0.28-0.78c0.11-0.26,0.22-0.51,0.35-0.75c0.13-0.24,0.27-0.48,0.43-0.71c0.15-0.23,0.32-0.45,0.49-0.67
	s0.36-0.42,0.56-0.62c0.2-0.2,0.4-0.38,0.62-0.56c0.21-0.17,0.44-0.34,0.67-0.49c0.23-0.15,0.47-0.3,0.71-0.43
	c0.24-0.13,0.49-0.25,0.75-0.35c0.26-0.11,0.52-0.2,0.78-0.28c0.26-0.08,0.53-0.15,0.81-0.2c0.27-0.05,0.55-0.1,0.82-0.12
	c0.28-0.03,0.55-0.04,0.83-0.04s0.55,0.01,0.83,0.04c0.28,0.03,0.55,0.07,0.82,0.12c0.27,0.05,0.54,0.12,0.81,0.2
	c0.26,0.08,0.53,0.17,0.78,0.28c0.26,0.11,0.51,0.22,0.75,0.35c0.24,0.13,0.48,0.27,0.71,0.43c0.23,0.15,0.45,0.32,0.67,0.49
	c0.21,0.18,0.42,0.36,0.62,0.56c0.2,0.2,0.38,0.4,0.56,0.62c0.18,0.21,0.34,0.44,0.49,0.67c0.15,0.23,0.3,0.47,0.43,0.71
	c0.13,0.24,0.25,0.49,0.35,0.75c0.11,0.26,0.2,0.52,0.28,0.78c0.08,0.26,0.15,0.53,0.2,0.81c0.05,0.27,0.09,0.55,0.12,0.82
	C53.33,84.45,53.34,84.73,53.34,85z"/>
<path class="st0" d="M89.14,85.11c0,0.28-0.01,0.55-0.04,0.83c-0.03,0.28-0.07,0.55-0.12,0.82c-0.05,0.27-0.12,0.54-0.2,0.8
	c-0.08,0.26-0.17,0.53-0.28,0.78c-0.11,0.26-0.22,0.51-0.35,0.75c-0.13,0.24-0.27,0.48-0.43,0.71c-0.15,0.23-0.32,0.45-0.49,0.67
	s-0.36,0.42-0.56,0.62c-0.2,0.2-0.4,0.38-0.62,0.56c-0.21,0.18-0.44,0.34-0.67,0.49c-0.23,0.15-0.47,0.3-0.71,0.43
	c-0.24,0.13-0.49,0.25-0.75,0.35c-0.26,0.11-0.52,0.2-0.78,0.28c-0.27,0.08-0.53,0.15-0.81,0.2c-0.27,0.05-0.55,0.1-0.82,0.12
	c-0.28,0.03-0.55,0.04-0.83,0.04s-0.55-0.01-0.83-0.04c-0.28-0.03-0.55-0.07-0.82-0.12c-0.27-0.05-0.54-0.12-0.81-0.2
	c-0.26-0.08-0.53-0.17-0.78-0.28c-0.26-0.11-0.51-0.22-0.75-0.35c-0.24-0.13-0.48-0.27-0.71-0.43c-0.23-0.15-0.45-0.32-0.67-0.49
	s-0.42-0.36-0.62-0.56s-0.38-0.4-0.56-0.62s-0.34-0.44-0.49-0.67c-0.15-0.23-0.3-0.47-0.43-0.71c-0.13-0.24-0.25-0.49-0.35-0.75
	c-0.11-0.26-0.2-0.52-0.28-0.78c-0.08-0.26-0.15-0.53-0.2-0.8c-0.05-0.27-0.1-0.55-0.12-0.82c-0.03-0.28-0.04-0.55-0.04-0.83
	c0-0.28,0.01-0.55,0.04-0.83c0.03-0.28,0.07-0.55,0.12-0.82c0.05-0.27,0.12-0.54,0.2-0.8c0.08-0.27,0.17-0.53,0.28-0.78
	c0.11-0.26,0.22-0.51,0.35-0.75c0.13-0.24,0.27-0.48,0.43-0.71c0.15-0.23,0.32-0.45,0.49-0.67c0.18-0.21,0.36-0.42,0.56-0.62
	s0.4-0.38,0.62-0.56s0.44-0.34,0.67-0.49c0.23-0.15,0.47-0.3,0.71-0.43c0.24-0.13,0.49-0.25,0.75-0.36c0.26-0.11,0.52-0.2,0.78-0.28
	c0.26-0.08,0.53-0.15,0.81-0.2c0.27-0.05,0.55-0.09,0.82-0.12c0.28-0.03,0.55-0.04,0.83-0.04s0.55,0.01,0.83,0.04
	c0.28,0.03,0.55,0.07,0.82,0.12c0.27,0.05,0.54,0.12,0.81,0.2c0.26,0.08,0.53,0.17,0.78,0.28c0.26,0.11,0.51,0.22,0.75,0.36
	c0.24,0.13,0.48,0.27,0.71,0.43c0.23,0.15,0.45,0.32,0.67,0.49c0.21,0.18,0.42,0.36,0.62,0.56c0.2,0.2,0.38,0.4,0.56,0.62
	c0.18,0.21,0.34,0.44,0.49,0.67c0.15,0.23,0.3,0.47,0.43,0.71c0.13,0.24,0.25,0.49,0.35,0.75c0.11,0.26,0.2,0.52,0.28,0.78
	c0.08,0.26,0.15,0.53,0.2,0.8c0.05,0.27,0.09,0.55,0.12,0.82C89.13,84.56,89.14,84.83,89.14,85.11z"/>
<path class="st0" d="M95.63,68.21c0-2.65-2.14-4.79-4.79-4.79H41.36L21.55,6.43H6.13c-2.53,0-4.6,1.96-4.78,4.45v0.69
	c0.18,2.48,2.25,4.45,4.78,4.45h8.61L34.55,73h56.29C93.48,73,95.63,70.86,95.63,68.21z"/>
</svg>
