<?xml version="1.0" encoding="UTF-8"?>
<svg id="Layer_1" xmlns="http://www.w3.org/2000/svg" version="1.1" viewBox="0 0 50 50">
  <!-- Generator: Adobe Illustrator 29.7.1, SVG Export Plug-In . SVG Version: 2.1.1 Build 8)  -->
  <defs>
    <style>
      .st0 {
        fill: #e6f0fc;
      }

      .st1 {
        fill: #557fb9;
      }
    </style>
  </defs>
  <g>
    <rect class="st0" x="2.2" y="2.2" width="10.73" height="10.73" rx="2.68" ry="2.68"/>
    <rect class="st0" x="2.2" y="19.64" width="10.73" height="10.73" rx="2.68" ry="2.68"/>
    <rect class="st0" x="2.2" y="37.07" width="10.73" height="10.73" rx="2.68" ry="2.68"/>
  </g>
  <g>
    <g>
      <path class="st1" d="M10.25,14.61h-5.36c-2.4,0-4.36-1.96-4.36-4.36v-5.36C.53,2.48,2.48.53,4.88.53h5.36c2.4,0,4.36,1.96,4.36,4.36v5.36c0,2.4-1.96,4.36-4.36,4.36ZM4.88,3.88c-.55,0-1.01.45-1.01,1.01v5.36c0,.55.45,1.01,1.01,1.01h5.36c.55,0,1.01-.45,1.01-1.01v-5.36c0-.55-.45-1.01-1.01-1.01h-5.36Z"/>
      <path class="st1" d="M47.8,9.24h-28.16c-.93,0-1.68-.75-1.68-1.68s.75-1.68,1.68-1.68h28.16c.93,0,1.68.75,1.68,1.68s-.75,1.68-1.68,1.68Z"/>
    </g>
    <g>
      <path class="st1" d="M10.25,32.04h-5.36c-2.4,0-4.36-1.96-4.36-4.36v-5.36c0-2.4,1.96-4.36,4.36-4.36h5.36c2.4,0,4.36,1.96,4.36,4.36v5.36c0,2.4-1.96,4.36-4.36,4.36ZM4.88,21.31c-.55,0-1.01.45-1.01,1.01v5.36c0,.55.45,1.01,1.01,1.01h5.36c.55,0,1.01-.45,1.01-1.01v-5.36c0-.55-.45-1.01-1.01-1.01h-5.36Z"/>
      <path class="st1" d="M47.8,26.68h-28.16c-.93,0-1.68-.75-1.68-1.68s.75-1.68,1.68-1.68h28.16c.93,0,1.68.75,1.68,1.68s-.75,1.68-1.68,1.68Z"/>
    </g>
    <g>
      <path class="st1" d="M10.25,49.47h-5.36c-2.4,0-4.36-1.96-4.36-4.36v-5.36c0-2.4,1.96-4.36,4.36-4.36h5.36c2.4,0,4.36,1.96,4.36,4.36v5.36c0,2.4-1.96,4.36-4.36,4.36ZM4.88,38.75c-.55,0-1.01.45-1.01,1.01v5.36c0,.55.45,1.01,1.01,1.01h5.36c.55,0,1.01-.45,1.01-1.01v-5.36c0-.55-.45-1.01-1.01-1.01h-5.36Z"/>
      <path class="st1" d="M47.8,44.11h-28.16c-.93,0-1.68-.75-1.68-1.68s.75-1.68,1.68-1.68h28.16c.93,0,1.68.75,1.68,1.68s-.75,1.68-1.68,1.68Z"/>
    </g>
  </g>
</svg>