<?xml version="1.0" encoding="UTF-8"?>
<svg id="Layer_1" xmlns="http://www.w3.org/2000/svg" version="1.1" viewBox="0 0 50 50">
  <!-- Generator: Adobe Illustrator 29.7.1, SVG Export Plug-In . SVG Version: 2.1.1 Build 8)  -->
  <defs>
    <style>
      .st0 {
        fill: #fff;
      }

      .st1 {
        fill: #e6f0fc;
      }

      .st2 {
        fill: #557fb9;
      }
    </style>
  </defs>
  <g>
    <path class="st0" d="M44.39,5.61l-11.9,11.9c-4.14,4.14-10.83,4.14-14.97,0L5.61,5.61c1.92-1.9,4.56-3.09,7.48-3.09h23.8c2.92,0,5.57,1.19,7.48,3.09Z"/>
    <path class="st1" d="M47.48,13.1v23.8c0,5.84-4.73,10.58-10.58,10.58H13.1c-5.84,0-10.58-4.73-10.58-10.58V13.1c0-2.92,1.19-5.57,3.09-7.48l11.9,11.9c4.14,4.14,10.83,4.14,14.97,0l11.9-11.9c1.9,1.92,3.09,4.56,3.09,7.48Z"/>
  </g>
  <g>
    <path class="st2" d="M25,22.26c-3.13,0-6.26-1.19-8.65-3.58L4.45,6.79c-.65-.65-.65-1.69,0-2.34s1.69-.65,2.34,0l11.9,11.9c3.48,3.48,9.14,3.48,12.62,0l11.9-11.9c.65-.65,1.69-.65,2.34,0s.65,1.69,0,2.34l-11.9,11.9c-2.39,2.38-5.52,3.58-8.65,3.58Z"/>
    <path class="st2" d="M2.52,14.75c-.91,0-1.65-.74-1.65-1.65,0-3.27,1.27-6.34,3.58-8.65.65-.65,1.69-.65,2.34,0,.65.65.65,1.69,0,2.34-1.69,1.69-2.61,3.93-2.61,6.31,0,.91-.74,1.65-1.65,1.65Z"/>
    <path class="st2" d="M13.1,49.13c-6.74,0-12.23-5.49-12.23-12.23,0-.91.74-1.65,1.65-1.65s1.65.74,1.65,1.65c0,4.92,4,8.93,8.93,8.93.91,0,1.65.74,1.65,1.65s-.74,1.65-1.65,1.65Z"/>
    <path class="st2" d="M36.9,49.13c-.91,0-1.65-.74-1.65-1.65s.74-1.65,1.65-1.65c4.92,0,8.93-4,8.93-8.93,0-.91.74-1.65,1.65-1.65s1.65.74,1.65,1.65c0,6.74-5.49,12.23-12.23,12.23Z"/>
    <path class="st2" d="M44.38,7.27c-.42,0-.85-.16-1.17-.48-1.69-1.69-3.93-2.62-6.31-2.62-.91,0-1.65-.74-1.65-1.65s.74-1.65,1.65-1.65c3.27,0,6.34,1.27,8.65,3.58.65.65.65,1.69,0,2.34-.32.32-.75.48-1.17.48Z"/>
    <path class="st2" d="M5.62,7.27c-.42,0-.85-.16-1.17-.48-.65-.65-.65-1.69,0-2.34C6.76,2.14,9.83.87,13.1.87h0c.91,0,1.65.74,1.65,1.65s-.74,1.65-1.65,1.65c-2.38,0-4.63.93-6.31,2.62-.32.32-.75.48-1.17.48Z"/>
    <path class="st2" d="M47.48,14.75c-.91,0-1.65-.74-1.65-1.65,0-2.38-.93-4.63-2.61-6.31-.65-.65-.65-1.69,0-2.34.65-.64,1.69-.65,2.34,0,2.31,2.31,3.58,5.38,3.58,8.65,0,.91-.74,1.65-1.65,1.65Z"/>
    <path class="st2" d="M36.9,49.13H13.1c-.91,0-1.65-.74-1.65-1.65s.74-1.65,1.65-1.65h23.8c.91,0,1.65.74,1.65,1.65s-.74,1.65-1.65,1.65Z"/>
    <path class="st2" d="M47.48,38.55c-.91,0-1.65-.74-1.65-1.65V13.1c0-.91.74-1.65,1.65-1.65s1.65.74,1.65,1.65v23.8c0,.91-.74,1.65-1.65,1.65Z"/>
    <path class="st2" d="M2.52,38.55c-.91,0-1.65-.74-1.65-1.65V13.1c0-.91.74-1.65,1.65-1.65s1.65.74,1.65,1.65v23.8c0,.91-.74,1.65-1.65,1.65Z"/>
    <path class="st2" d="M36.9,4.17H13.1c-.91,0-1.65-.74-1.65-1.65s.74-1.65,1.65-1.65h23.8c.91,0,1.65.74,1.65,1.65s-.74,1.65-1.65,1.65Z"/>
  </g>
</svg>