<?xml version="1.0" encoding="UTF-8"?>
<svg id="Layer_1" xmlns="http://www.w3.org/2000/svg" version="1.1" viewBox="0 0 50 50">
  <!-- Generator: Adobe Illustrator 29.7.1, SVG Export Plug-In . SVG Version: 2.1.1 Build 8)  -->
  <defs>
    <style>
      .st0 {
        fill: #e6f0fc;
      }

      .st1 {
        fill: #557fb9;
      }
    </style>
  </defs>
  <path class="st0" d="M47.62,18.52l-5.61,13.77c-.42,1.05-1.44,1.73-2.57,1.73h-19.58c-1.25,0-2.36-.85-2.68-2.05l-4.66-17.27h32.53c1.97,0,3.3,2,2.57,3.82Z"/>
  <g>
    <path class="st1" d="M12.52,16.44c-.76,0-1.47-.51-1.67-1.28l-2.1-7.77c-.12-.45-.54-.77-1.01-.77H2.01c-.96,0-1.73-.78-1.73-1.73s.78-1.73,1.73-1.73h5.73c2.04,0,3.83,1.37,4.36,3.34l2.1,7.77c.25.92-.3,1.88-1.22,2.13-.15.04-.3.06-.45.06Z"/>
    <path class="st1" d="M39.44,35.76h-19.59c-2.03,0-3.82-1.37-4.35-3.34l-4.66-17.27c-.14-.52-.03-1.08.3-1.51.33-.43.84-.68,1.38-.68h32.52c1.5,0,2.9.74,3.74,1.99.84,1.25,1,2.82.44,4.22l-5.6,13.77c-.7,1.71-2.34,2.81-4.18,2.81ZM14.78,16.44l4.07,15.08c.12.45.54.77,1,.77h19.59c.43,0,.8-.25.97-.65l5.6-13.77c.19-.46,0-.83-.1-.97-.09-.14-.36-.46-.86-.46H14.78Z"/>
    <g>
      <path class="st1" d="M23.97,46.86h-6.94c-.96,0-1.73-.78-1.73-1.73s.78-1.73,1.73-1.73h6.94c.96,0,1.73.78,1.73,1.73s-.78,1.73-1.73,1.73Z"/>
      <path class="st1" d="M42.01,46.86h-6.94c-.96,0-1.73-.78-1.73-1.73s.78-1.73,1.73-1.73h6.94c.96,0,1.73.78,1.73,1.73s-.78,1.73-1.73,1.73Z"/>
    </g>
  </g>
</svg>