<?xml version="1.0" encoding="UTF-8"?>
<svg id="Layer_1" xmlns="http://www.w3.org/2000/svg" version="1.1" viewBox="0 0 100 100">
  <!-- Generator: Adobe Illustrator 29.7.1, SVG Export Plug-In . SVG Version: 2.1.1 Build 8)  -->
  <defs>
    <style>
      .st0 {
        fill: #f58020;
        opacity: .2;
      }

      .st1 {
        fill: #f15623;
      }
    </style>
  </defs>
  <polygon class="st1" points="83.98 84.06 83.98 93.9 11.9 84.06 83.98 84.06"/>
  <path class="st0" d="M11.9,6.1v77.96h76.2V6.1H11.9ZM38.16,55.65c.55,1.23,1.29,2.28,2.22,3.14.83.91,1.9,1.68,3.19,2.19,1.2.5,2.54.73,3.93.73h4.44c1.34,0,2.68-.23,3.88-.73,1.25-.5,2.31-1.27,3.14-2.19.92-.87,1.66-1.91,2.22-3.14.55-1.18.79-2.5.79-3.82v-3.69c0-1.96-.65-3.6-2.03-4.96-1.34-1.37-3.01-2.05-4.95-2.05-1.29,0-2.36.46-3.19,1.28-.92.87-1.34,1.87-1.34,3.05v5.56h-6.01v-5.56c0-1.37.32-2.73.88-3.96.55-1.28,1.34-2.37,2.31-3.28.92-.86,2.08-1.64,3.33-2.19,1.25-.55,2.64-.82,4.02-.82,1.76,0,3.42.36,4.99,1,1.57.73,2.96,1.68,4.12,2.82,1.25,1.14,2.13,2.55,2.87,4.1.69,1.59,1.06,3.23,1.06,5.01v3.69c0,2.14-.46,4.19-1.29,6.1-.83,1.87-1.94,3.6-3.42,5.05-1.43,1.41-3.14,2.6-5.13,3.42-1.99.82-4.07,1.23-6.24,1.23h-4.44c-2.27,0-4.35-.41-6.29-1.23-1.99-.82-3.65-2-5.09-3.42-1.43-1.46-2.59-3.19-3.42-5.05-.88-1.91-1.29-3.96-1.29-6.1v-13.25h5.96v13.25c0,1.32.23,2.64.79,3.82ZM71.32,33.93H29.24v-5.92h42.08v5.92Z"/>
  <path class="st1" d="M15.45,10.52v68.53h68.53V10.52H15.45ZM67.18,51.82c0,2.14-.46,4.19-1.28,6.1-.82,1.87-1.91,3.6-3.37,5.05-1.41,1.41-3.1,2.6-5.05,3.42-1.96.82-4.01,1.23-6.15,1.23h-4.37c-2.23,0-4.28-.41-6.19-1.23-1.96-.82-3.6-2-5.01-3.42-1.41-1.46-2.55-3.19-3.37-5.05-.87-1.91-1.28-3.96-1.28-6.1v-13.25h5.87v13.25c0,1.32.23,2.64.77,3.82.55,1.23,1.27,2.28,2.19,3.14.82.91,1.87,1.68,3.14,2.19,1.18.5,2.5.73,3.87.73h4.37c1.32,0,2.64-.23,3.83-.73,1.23-.5,2.28-1.27,3.1-2.19.91-.87,1.64-1.91,2.19-3.14.55-1.18.77-2.5.77-3.82v-3.69c0-1.96-.64-3.6-2-4.96-1.32-1.37-2.96-2.05-4.87-2.05-1.28,0-2.32.46-3.14,1.28-.91.87-1.32,1.87-1.32,3.05v5.56h-5.92v-5.56c0-1.37.32-2.73.87-3.96.55-1.28,1.32-2.37,2.28-3.28.91-.86,2.05-1.64,3.28-2.19,1.23-.55,2.6-.82,3.96-.82,1.73,0,3.37.36,4.92,1,1.55.73,2.91,1.68,4.05,2.82,1.23,1.14,2.09,2.55,2.82,4.1.68,1.59,1.05,3.23,1.05,5.01v3.69ZM70.41,33.93H28.98v-5.92h41.44v5.92Z"/>
</svg>