<?xml version="1.0" encoding="UTF-8"?>
<svg id="Layer_1" xmlns="http://www.w3.org/2000/svg" version="1.1" viewBox="0 0 100 100">
  <!-- Generator: Adobe Illustrator 29.7.1, SVG Export Plug-In . SVG Version: 2.1.1 Build 8)  -->
  <defs>
    <style>
      .st0 {
        fill: #f58020;
        opacity: .2;
      }

      .st1 {
        fill: #f15623;
      }

      .st2 {
        fill: #414042;
      }
    </style>
  </defs>
  <polygon class="st1" points="243.98 84.06 243.98 93.9 171.9 84.06 243.98 84.06"/>
  <path class="st0" d="M171.9,6.1v77.96h76.2V6.1h-76.2ZM198.16,55.65c.55,1.23,1.29,2.28,2.22,3.14.83.91,1.9,1.68,3.19,2.19,1.2.5,2.54.73,3.93.73h4.44c1.34,0,2.68-.23,3.88-.73,1.25-.5,2.31-1.27,3.14-2.19.92-.87,1.66-1.91,2.22-3.14.55-1.18.79-2.5.79-3.82v-3.69c0-1.96-.65-3.6-2.03-4.96-1.34-1.37-3.01-2.05-4.95-2.05-1.29,0-2.36.46-3.19,1.28-.92.87-1.34,1.87-1.34,3.05v5.56h-6.01v-5.56c0-1.37.32-2.73.88-3.96.55-1.28,1.34-2.37,2.31-3.28.92-.86,2.08-1.64,3.33-2.19,1.25-.55,2.64-.82,4.02-.82,1.76,0,3.42.36,4.99,1,1.57.73,2.96,1.68,4.12,2.82,1.25,1.14,2.13,2.55,2.87,4.1.69,1.59,1.06,3.23,1.06,5.01v3.69c0,2.14-.46,4.19-1.29,6.1-.83,1.87-1.94,3.6-3.42,5.05-1.43,1.41-3.14,2.6-5.13,3.42-1.99.82-4.07,1.23-6.24,1.23h-4.44c-2.27,0-4.35-.41-6.29-1.23-1.99-.82-3.65-2-5.09-3.42-1.43-1.46-2.59-3.19-3.42-5.05-.88-1.91-1.29-3.96-1.29-6.1v-13.25h5.96v13.25c0,1.32.23,2.64.79,3.82ZM231.32,33.93h-42.08v-5.92h42.08v5.92Z"/>
  <path class="st1" d="M175.45,10.52v68.53h68.53V10.52h-68.53ZM227.18,51.82c0,2.14-.46,4.19-1.28,6.1-.82,1.87-1.91,3.6-3.37,5.05-1.41,1.41-3.1,2.6-5.05,3.42-1.96.82-4.01,1.23-6.15,1.23h-4.37c-2.23,0-4.28-.41-6.19-1.23-1.96-.82-3.6-2-5.01-3.42-1.41-1.46-2.55-3.19-3.37-5.05-.87-1.91-1.28-3.96-1.28-6.1v-13.25h5.87v13.25c0,1.32.23,2.64.77,3.82.55,1.23,1.27,2.28,2.19,3.14.82.91,1.87,1.68,3.14,2.19,1.18.5,2.5.73,3.87.73h4.37c1.32,0,2.64-.23,3.83-.73,1.23-.5,2.28-1.27,3.1-2.19.91-.87,1.64-1.91,2.19-3.14.55-1.18.77-2.5.77-3.82v-3.69c0-1.96-.64-3.6-2-4.96-1.32-1.37-2.96-2.05-4.87-2.05-1.28,0-2.32.46-3.14,1.28-.91.87-1.32,1.87-1.32,3.05v5.56h-5.92v-5.56c0-1.37.32-2.73.87-3.96.55-1.28,1.32-2.37,2.28-3.28.91-.86,2.05-1.64,3.28-2.19,1.23-.55,2.6-.82,3.96-.82,1.73,0,3.37.36,4.92,1,1.55.73,2.91,1.68,4.05,2.82,1.23,1.14,2.09,2.55,2.82,4.1.68,1.59,1.05,3.23,1.05,5.01v3.69ZM230.41,33.93h-41.44v-5.92h41.44v5.92Z"/>
  <g>
    <path class="st1" d="M82.4,81.02c-5.41,4.49-11.72,7.33-18.35,9.51-3.97,1.31-8.03,2.16-12.2,2.53-9.13.8-18.08-.01-26.51-3.72C7.2,81.37-1.67,60.14,5.92,41.53c3.1-7.6,8.88-13.85,15.38-18.87,7.85-6.06,16.91-10.55,26.49-13.12,11.51-3.09,23.82-3.39,35.34-.36.3.08.64.18.81.44.19.28.15.64.1.97-.44,2.92-.89,5.84-1.33,8.76-6.38-3.41-13.76-4.72-20.99-4.46-7.23.26-14.34,2.05-21.13,4.54-6.88,2.53-13.54,5.82-19.26,10.41-7.28,5.84-13.23,14.25-14.47,23.67-1.7,12.85,6.92,24.08,17.84,29.76,4.3,2.23,8.92,3.54,13.72,4.14,2.94.37,5.92.75,8.88.68,10.58-.25,20.55-2.73,29.46-8.69,5.55-3.72,10.05-8.44,13.3-14.28,2.08-3.73,3.32-7.76,3.43-12.05.05-1.75-.13-3.43-.51-5.05-.29-1.3-.71-2.56-1.22-3.79-.65-1.55-1.46-3.05-2.38-4.51-4.16-6.57-10.32-10.04-17.74-11.57-1.09-.23-2.2-.35-3.3-.49-.18-.02-.35-.04-.53-.06-.47-.06-.67-.22-.66-.73.02-2.29.03-4.59,0-6.89,0-.56.19-.75.73-.68,11.24,1.57,19.95,6.96,25.56,16.98,1.19,2.12,2.05,4.36,2.62,6.68.36,1.5.61,3.03.74,4.59,1.17,13.72-3.92,24.78-14.4,33.48Z"/>
    <g>
      <path class="st1" d="M33.93,41.7c-2.4,1.07-4.51,1.97-7.59,2.51,0,2.58-.11,5.12-.11,12.25,0,1.36.5,7.27,0,8.31-.54,1.04-1.58,1.75-2.79,1.97-1.58.25-3.37-.25-3.87-1.97-.86-3.69.36-9.49.72-13.36l.61-6.95c-2.22,0-4.55-.36-6.63-1.18-1.33-.43-.21-2.44.93-2.33,1.29.64,4.33.64,5.98.68.11-1.43.21-2.29.21-2.29.04-1.43,4.84-1.68,4.98.11v1.61c2.18-.5,4.23-1.58,6.23-2.58,2.44-1.36,4.01,1.68,1.33,3.22Z"/>
      <path class="st1" d="M44.1,61.4c.39,3.33,1.15,2.9-.43,3.72-1.33.72-5.87,1.25-6.38-.82-.04-.32-.11-1.33,0-2.22-1,1.47-2.51,2.69-4.23,3.26-2.83,1-4.87-2.08-4.62-4.84.64-5.62,5.62-11.64,11.78-11.89.54.04.97.32.97,1.07,0,.54-.29.93-.72,1.25-.5.36-1.15.32-1.75.5-3.51,1.04-7.2,5.66-7.2,9.56,0,.61.11,1.54.75,1.22,3.01-1.97,5.16-7.27,7.02-9.81.5-.47,4.73.36,4.94,1.15-.5,2.47-.47,5.16-.14,7.84Z"/>
      <path class="st1" d="M58.36,56.88c-.11.93-3.65.47-3.55-.61.29-.86.43-1.83.72-2.83l-1.04,1.18c-.29.32-2.11,2.4-2.11,2.94,0,1.68.61,5.62-.47,6.7-1.79,1.04-6.16,2.47-6.16-1.15,0-4.58.64-9.17,1.61-14.04.72-1.04,3.29.21,4.26.72,1.22.75.57,1.07.57,2.47v.25c.72-.97,1.58-1.9,2.29-2.61.82-.68,1.58-1.29,2.47-1.07,1.11.29,2.11,1.5,1.97,2.72-.32,1.72-.5,3.51-.57,5.34Z"/>
      <path class="st1" d="M60.94,51.91c-.04-.79,4.83-.61,4.98.14.11,3.4.36,6.73.68,10.1.07,1.25.54,2.15-.79,2.69-1.22.47-5.77,1.25-5.95-.79.25-4.15.43-8.2,1.07-12.14ZM62.55,49.69c-.97.36-2.36-1.47-1.25-2.22,1-.79,2.15-1.25,3.22-1.75.79-.21,1.83,3.01.47,3.26-.82.21-1.61.47-2.44.72Z"/>
      <path class="st1" d="M82.6,45.96c-.75,1.29-3.72,1.18-3.44-.61,0-.29.07-.79-.68-.75-1.04.04-1.58,1.07-1.86,2.33-.43,1.79-.57,3.9-.68,5.59h3.33c1.76.21,1,3.62-.47,3.55-.75-.07-2.15-.25-3.15-.36-.25,4.48-.25,8.85.64,13.82.32,1.07.57,1.86-.29,2.87-1.72,2.01-5.3,2.11-6.34-.79-.47-.9-.61-4.87-.61-6.27,0-3.12.39-6.16.72-9.67h-1.33c-.64,0-.72-2.4-.07-2.51.54,0,1.11-.07,1.72-.14.29-2.26.75-4.91,1.33-6.38,1-2.69,3.8-5.12,7.02-5.09,1.83,0,5.41,1.83,4.15,4.41Z"/>
    </g>
    <g>
      <path class="st2" d="M41.42,74.26c-.3-.02-.54-.14-.66-.39-.44-.87-.48-2.51-.51-3.92-.54.99-1.17,1.91-1.58,3.03,0,.02-.02.03-.03.05,0,.05-.05.09-.07.12-.47.47-1.74.5-2.37.24-.27-.11-.48-.29-.48-.5.06-.86.08-1.73.15-2.73,0-.12.02-.23.02-.33-.48.74-.89,1.55-1.37,2.33-.62,1.19-.77,1.5-2.27,1.56-.35.07-.8-.08-.95-.47-.35-1.98-.23-4.19-.05-6.18-.03-.32,2.31-.41,2.39.03.17,1.26.02,2.55.18,3.9l.44-.96c.33-.68,1.1-2.67,1.91-2.87.38-.11,1.74-.5,1.94.15,0,.02.01.02.01.03.21,1.04.21,2.12.33,3.24.38-.83.8-1.64,1.32-2.43.32-.47.6-1.05,1.25-1.07.56-.05,1.79.36,1.8.65-.39,1.58-.11,3.41.66,4.95.06.14.11.21.11.21.21.72-1.58,1.38-2.16,1.35Z"/>
      <path class="st2" d="M49.11,71.99c.23.5-.38.93-.75,1.2-.51.38-1.08.59-1.92.65-2.82-.2-2.64-3.92-1.77-5.33,1.1-1.59,2.97-1.91,4.32-.56.41.51.5,1.19.06,1.77-.62.77-1.76,1.29-2.79,1.29,0,.21.03.87.24,1.23.47.66.96-.04,1.37-.45.24-.27,1.1-.17,1.25.2ZM46.38,69.76c-.05.07.21,0,.33-.03.36-.14,1.34-.39,1.34-.95,0-.3-.35-.24-.56-.15-.69.29-.9.71-1.11,1.13Z"/>
      <path class="st2" d="M57.77,63.93c-.39.83-.8,2.97-.93,3.92-.3,1.91-.29,3.89-.21,5.91.06.6-1.97.96-2.12.26-.18-.59-.39-2.03-.35-3.08-.21.62-.48,1.25-.93,1.85-.3.44-.72.86-1.29.93h-.11c-1.73.21-2.22-1.53-2.18-2.22,0-.65.26-3.06,1.64-4.01,1.43-.9,2.91-.35,2.91-.35.24-1.41.3-2.85.75-4.26.3-.83,1.08-.93,1.77-.63.69.35,1.23.99,1.04,1.68ZM53.78,68.57c-1.01,0-1.86,1.07-2.13,2.03-.12.42-.39,1.65.2,1.89.63-.14,1.73-3.02,1.94-3.92Z"/>
      <path class="st2" d="M57.98,68.18c-.02-.33,2.03-.26,2.09.06.05,1.43.15,2.82.29,4.23.03.53.23.9-.33,1.13-.51.2-2.42.53-2.49-.33.11-1.74.18-3.44.45-5.09ZM58.66,67.25c-.41.15-.99-.62-.53-.93.42-.33.9-.53,1.35-.74.33-.09.77,1.26.2,1.37-.35.09-.68.2-1.02.3Z"/>
      <path class="st2" d="M67.47,72.16c.17,1.4.48,1.22-.18,1.56-.56.3-2.46.53-2.67-.35-.02-.14-.05-.56,0-.93-.42.62-1.05,1.13-1.77,1.37-1.19.42-2.04-.87-1.94-2.03.27-2.36,2.36-4.88,4.94-4.98.23.02.41.14.41.45,0,.23-.12.39-.3.53-.21.15-.48.14-.74.21-1.47.44-3.02,2.37-3.02,4.01,0,.26.05.65.32.51,1.26-.83,2.16-3.05,2.94-4.11.21-.2,1.98.15,2.07.48-.21,1.04-.2,2.16-.06,3.29Z"/>
    </g>
  </g>
</svg>