<?xml version="1.0" encoding="UTF-8"?>
<svg id="Layer_1" xmlns="http://www.w3.org/2000/svg" version="1.1" viewBox="0 0 50 50">
  <!-- Generator: Adobe Illustrator 29.7.1, SVG Export Plug-In . SVG Version: 2.1.1 Build 8)  -->
  <defs>
    <style>
      .st0 {
        fill: #fff;
      }

      .st1 {
        fill: #e6f0fc;
      }

      .st2 {
        fill: #557fb9;
      }
    </style>
  </defs>
  <g>
    <path class="st0" d="M46.44,32.68c-.93,2.57-2.28,4.95-4.01,7-1.89,2.24-4.21,4.1-6.83,5.48-.03-2.13-.89-4.06-2.25-5.48-1.49-1.54-3.55-2.51-5.86-2.51h-.94c0-.08.01-.16.01-.23,2.17-.67,3.74-2.7,3.74-5.08,0-.48-.07-.95-.2-1.39,1.3-.9,2.88-1.41,4.57-1.41h5c2.82,0,5.3,1.43,6.76,3.62Z"/>
    <path class="st0" d="M18.13,23.75c0,2.92-2.39,5.31-5.31,5.31s-5.31-2.39-5.31-5.31,2.37-5.31,5.31-5.31,5.31,2.37,5.31,5.31Z"/>
    <path class="st0" d="M42.49,23.75c0,2.92-2.37,5.31-5.31,5.31s-5.31-2.39-5.31-5.31,2.39-5.31,5.31-5.31,5.31,2.37,5.31,5.31Z"/>
    <path class="st0" d="M30.31,31.87c0,2.39-1.57,4.41-3.74,5.08-.5.15-1.02.23-1.57.23s-1.07-.08-1.57-.23c-2.17-.67-3.74-2.7-3.74-5.08,0-.48.07-.95.2-1.39.62-2.25,2.67-3.92,5.11-3.92s4.49,1.66,5.11,3.92c.13.44.2.91.2,1.39Z"/>
    <path class="st1" d="M47.8,25c0,2.7-.5,5.28-1.35,7.68-1.46-2.19-3.94-3.62-6.76-3.62h-2.51c2.94,0,5.31-2.39,5.31-5.31s-2.37-5.31-5.31-5.31-5.31,2.37-5.31,5.31,2.39,5.31,5.31,5.31h-2.49c-1.69,0-3.27.51-4.57,1.41-.62-2.25-2.67-3.92-5.11-3.92s-4.49,1.66-5.11,3.92c-1.3-.9-2.88-1.41-4.57-1.41h-2.49c2.92,0,5.31-2.39,5.31-5.31s-2.39-5.31-5.31-5.31-5.31,2.37-5.31,5.31,2.37,5.31,5.31,5.31h-2.51c-2.82,0-5.3,1.43-6.76,3.62-.86-2.4-1.35-4.99-1.35-7.68C2.2,12.41,12.41,2.2,25,2.2s22.8,10.2,22.8,22.8Z"/>
    <path class="st0" d="M35.61,45.17c-3.16,1.68-6.77,2.63-10.61,2.63s-7.44-.95-10.61-2.63c.03-2.13.89-4.06,2.25-5.48,1.49-1.54,3.55-2.51,5.86-2.51h4.99c2.31,0,4.37.97,5.86,2.51,1.37,1.42,2.23,3.35,2.25,5.48Z"/>
    <path class="st0" d="M23.44,37.18h-.94c-2.31,0-4.37.97-5.86,2.51-1.37,1.42-2.23,3.35-2.25,5.48-2.61-1.38-4.93-3.25-6.83-5.48-1.73-2.05-3.08-4.43-4.01-7,1.46-2.19,3.94-3.62,6.76-3.62h5c1.69,0,3.27.51,4.57,1.41-.13.44-.2.91-.2,1.39,0,2.39,1.57,4.41,3.74,5.08,0,.07.01.15.01.23Z"/>
  </g>
  <g>
    <path class="st2" d="M26.57,38.62c-.72,0-1.38-.46-1.6-1.18-.27-.88.22-1.82,1.11-2.1,1.53-.47,2.55-1.87,2.55-3.47,0-.31-.04-.64-.13-.96-.25-.89.28-1.82,1.17-2.06.88-.24,1.82.28,2.06,1.17.17.61.25,1.23.25,1.85,0,3.08-1.97,5.76-4.91,6.67-.17.05-.33.07-.5.07Z"/>
    <path class="st2" d="M23.43,38.62c-.16,0-.33-.02-.5-.07-2.94-.91-4.91-3.59-4.91-6.67,0-.61.09-1.23.25-1.85.24-.89,1.18-1.42,2.06-1.17.89.24,1.42,1.17,1.17,2.06-.09.32-.13.65-.13.96,0,1.6,1.03,3,2.55,3.47.88.28,1.38,1.21,1.11,2.1-.22.72-.89,1.18-1.6,1.18Z"/>
    <path class="st2" d="M25,38.86c-.71,0-1.4-.1-2.07-.31-.88-.27-1.38-1.21-1.1-2.1.27-.88,1.21-1.38,2.1-1.1.34.11.71.16,1.08.16.93,0,1.68.75,1.68,1.68s-.75,1.68-1.68,1.68Z"/>
    <path class="st2" d="M25,38.86c-.93,0-1.68-.75-1.68-1.68s.75-1.68,1.68-1.68c.37,0,.73-.06,1.08-.16.89-.28,1.82.22,2.1,1.1.28.89-.22,1.82-1.1,2.1-.67.21-1.36.31-2.07.31Z"/>
    <path class="st2" d="M30.11,32.14c-.74,0-1.41-.49-1.61-1.23-.43-1.57-1.87-2.67-3.5-2.67s-3.07,1.1-3.5,2.67c-.24.89-1.17,1.43-2.06,1.17-.89-.24-1.42-1.17-1.17-2.06.83-3.03,3.6-5.14,6.73-5.14s5.9,2.11,6.73,5.14c.24.89-.28,1.82-1.17,2.06-.15.04-.3.06-.44.06Z"/>
    <path class="st2" d="M16.65,41.35c-.42,0-.84-.16-1.16-.47-.67-.64-.69-1.7-.05-2.37,1.87-1.94,4.37-3.01,7.06-3.01h.94c.93,0,1.68.75,1.68,1.68s-.75,1.68-1.68,1.68h-.94c-1.76,0-3.41.7-4.64,1.98-.33.34-.77.51-1.21.51Z"/>
    <path class="st2" d="M25,38.86h-1.56c-.93,0-1.68-.75-1.68-1.68s.75-1.68,1.68-1.68h1.56c.93,0,1.68.75,1.68,1.68s-.75,1.68-1.68,1.68Z"/>
    <path class="st2" d="M35.61,46.84c-.91,0-1.66-.73-1.68-1.65-.03-1.63-.66-3.18-1.8-4.36-.64-.67-.62-1.73.05-2.37.67-.64,1.73-.62,2.37.05,1.72,1.79,2.69,4.14,2.73,6.63.01.92-.72,1.69-1.65,1.7h-.03Z"/>
    <path class="st2" d="M14.39,46.84h-.03c-.93-.01-1.66-.78-1.65-1.7.04-2.48,1.01-4.84,2.73-6.63.64-.67,1.7-.69,2.37-.05.67.64.69,1.7.05,2.37-1.13,1.18-1.77,2.72-1.8,4.36-.01.92-.76,1.65-1.68,1.65Z"/>
    <path class="st2" d="M33.35,41.35c-.44,0-.88-.17-1.21-.51-1.23-1.28-2.88-1.98-4.64-1.98h-.94c-.93,0-1.68-.75-1.68-1.68s.75-1.68,1.68-1.68h.94c2.68,0,5.19,1.07,7.06,3.01.64.67.62,1.73-.05,2.37-.32.31-.74.47-1.16.47Z"/>
    <path class="st2" d="M26.56,38.86h-1.56c-.93,0-1.68-.75-1.68-1.68s.75-1.68,1.68-1.68h1.56c.93,0,1.68.75,1.68,1.68s-.75,1.68-1.68,1.68Z"/>
    <path class="st2" d="M12.82,30.74c-3.85,0-6.99-3.13-6.99-6.99s3.13-6.99,6.99-6.99,6.99,3.13,6.99,6.99-3.13,6.99-6.99,6.99ZM12.82,20.12c-2,0-3.63,1.63-3.63,3.63s1.63,3.63,3.63,3.63,3.63-1.63,3.63-3.63-1.63-3.63-3.63-3.63Z"/>
    <path class="st2" d="M3.56,34.36c-.32,0-.64-.09-.93-.28-.77-.51-.98-1.55-.47-2.32,1.82-2.74,4.87-4.38,8.16-4.38h2.5c.93,0,1.68.75,1.68,1.68s-.75,1.68-1.68,1.68h-2.5c-2.16,0-4.17,1.08-5.37,2.88-.32.49-.86.75-1.4.75Z"/>
    <path class="st2" d="M19.88,32.14c-.32,0-.65-.09-.94-.29-1.07-.73-2.32-1.12-3.62-1.12h-2.5c-.93,0-1.68-.75-1.68-1.68s.75-1.68,1.68-1.68h2.5c1.97,0,3.88.59,5.51,1.7.76.52.96,1.56.44,2.33-.32.48-.85.73-1.39.73Z"/>
    <path class="st2" d="M23.44,38.86c-.93,0-1.68-.75-1.68-1.68,0-.02-.01-.16-.01-.18-.03-.93.7-1.7,1.62-1.73.9-.09,1.7.69,1.73,1.61,0,.12.01.21.01.3,0,.93-.75,1.68-1.68,1.68Z"/>
    <path class="st2" d="M37.18,30.74c-3.85,0-6.99-3.13-6.99-6.99s3.13-6.99,6.99-6.99,6.99,3.13,6.99,6.99-3.13,6.99-6.99,6.99ZM37.18,20.12c-2,0-3.63,1.63-3.63,3.63s1.63,3.63,3.63,3.63,3.63-1.63,3.63-3.63-1.63-3.63-3.63-3.63Z"/>
    <path class="st2" d="M26.56,38.79h-.06c-.9-.04-1.62-.71-1.62-1.61,0-.09,0-.18.01-.26.07-.91.87-1.64,1.77-1.6.91.05,1.62.77,1.59,1.68,0,.02,0,.15,0,.17-.07.88-.81,1.62-1.68,1.62Z"/>
    <path class="st2" d="M46.44,34.36c-.54,0-1.07-.26-1.4-.75-1.2-1.8-3.21-2.88-5.37-2.88h-2.5c-.93,0-1.68-.75-1.68-1.68s.75-1.68,1.68-1.68h2.5c3.28,0,6.33,1.64,8.16,4.38.51.77.3,1.81-.47,2.32-.29.19-.61.28-.93.28Z"/>
    <path class="st2" d="M30.12,32.14c-.54,0-1.06-.26-1.39-.73-.52-.77-.32-1.81.44-2.33,1.63-1.11,3.54-1.7,5.51-1.7h2.5c.93,0,1.68.75,1.68,1.68s-.75,1.68-1.68,1.68h-2.5c-1.3,0-2.55.39-3.62,1.12-.29.2-.62.29-.94.29Z"/>
    <path class="st2" d="M25,49.47c-.93,0-1.68-.75-1.68-1.68s.75-1.68,1.68-1.68c3.46,0,6.76-.82,9.83-2.43.82-.44,1.83-.12,2.26.7.43.82.12,1.83-.7,2.26-3.5,1.85-7.44,2.82-11.39,2.82Z"/>
    <path class="st2" d="M42.43,41.35c-.38,0-.76-.13-1.08-.39-.71-.6-.8-1.65-.2-2.36,1.61-1.9,2.85-4.08,3.71-6.48.31-.87,1.27-1.32,2.14-1.01.87.31,1.32,1.27,1.01,2.14-.99,2.77-2.44,5.29-4.3,7.51-.33.39-.81.6-1.28.6Z"/>
    <path class="st2" d="M35.61,46.84c-.6,0-1.18-.32-1.48-.89-.43-.82-.12-1.83.7-2.26,2.42-1.28,4.55-2.99,6.32-5.09.59-.71,1.65-.8,2.36-.2.71.6.8,1.65.2,2.36-2.05,2.43-4.51,4.41-7.32,5.89-.25.13-.52.19-.78.19Z"/>
    <path class="st2" d="M46.44,34.36c-.19,0-.38-.03-.57-.1-.87-.31-1.33-1.27-1.01-2.14.84-2.33,1.26-4.72,1.26-7.12,0-11.65-9.47-21.12-21.12-21.12S3.88,13.35,3.88,25c0,2.4.42,4.79,1.26,7.12.31.87-.14,1.83-1.01,2.14-.86.31-1.83-.14-2.14-1.01-.97-2.69-1.46-5.47-1.46-8.25C.53,11.5,11.5.53,25,.53s24.47,10.98,24.47,24.47c0,2.78-.49,5.56-1.46,8.25-.25.68-.89,1.11-1.58,1.11Z"/>
    <path class="st2" d="M25,49.47c-3.95,0-7.89-.98-11.39-2.82-.82-.43-1.13-1.44-.7-2.26.43-.82,1.44-1.14,2.26-.7,3.07,1.61,6.37,2.43,9.83,2.43.93,0,1.68.75,1.68,1.68s-.75,1.68-1.68,1.68Z"/>
    <path class="st2" d="M7.57,41.35c-.48,0-.95-.2-1.28-.6-1.86-2.21-3.31-4.74-4.3-7.51-.31-.87.14-1.83,1.01-2.14.87-.31,1.83.14,2.14,1.01.86,2.39,2.11,4.57,3.71,6.48.6.71.51,1.77-.2,2.36-.31.26-.7.39-1.08.39Z"/>
    <path class="st2" d="M14.39,46.84c-.26,0-.53-.06-.78-.19-2.81-1.48-5.27-3.46-7.32-5.89-.6-.71-.51-1.77.2-2.36.71-.6,1.77-.5,2.36.2,1.77,2.1,3.89,3.81,6.32,5.09.82.43,1.13,1.45.7,2.26-.3.57-.88.89-1.48.89Z"/>
  </g>
</svg>