<?xml version="1.0" encoding="UTF-8"?>
<svg id="Layer_1" xmlns="http://www.w3.org/2000/svg" version="1.1" viewBox="0 0 50 50">
  <!-- Generator: Adobe Illustrator 29.7.1, SVG Export Plug-In . SVG Version: 2.1.1 Build 8)  -->
  <defs>
    <style>
      .st0 {
        fill: #557fb9;
      }
    </style>
  </defs>
  <g>
    <path class="st0" d="M47.69,9.42h-30.73c-1.01,0-1.83-.82-1.83-1.83s.82-1.83,1.83-1.83h30.73c1.01,0,1.83.82,1.83,1.83s-.82,1.83-1.83,1.83Z"/>
    <path class="st0" d="M47.69,21.13h-30.73c-1.01,0-1.83-.82-1.83-1.83s.82-1.83,1.83-1.83h30.73c1.01,0,1.83.82,1.83,1.83s-.82,1.83-1.83,1.83Z"/>
    <path class="st0" d="M47.69,32.84h-30.73c-1.01,0-1.83-.82-1.83-1.83s.82-1.83,1.83-1.83h30.73c1.01,0,1.83.82,1.83,1.83s-.82,1.83-1.83,1.83Z"/>
    <path class="st0" d="M47.69,44.54h-30.73c-1.01,0-1.83-.82-1.83-1.83s.82-1.83,1.83-1.83h30.73c1.01,0,1.83.82,1.83,1.83s-.82,1.83-1.83,1.83Z"/>
  </g>
  <g>
    <path class="st0" d="M9.63,9.42H2.31c-1.01,0-1.83-.82-1.83-1.83s.82-1.83,1.83-1.83h7.32c1.01,0,1.83.82,1.83,1.83s-.82,1.83-1.83,1.83Z"/>
    <path class="st0" d="M9.63,21.13H2.31c-1.01,0-1.83-.82-1.83-1.83s.82-1.83,1.83-1.83h7.32c1.01,0,1.83.82,1.83,1.83s-.82,1.83-1.83,1.83Z"/>
    <path class="st0" d="M9.63,32.84H2.31c-1.01,0-1.83-.82-1.83-1.83s.82-1.83,1.83-1.83h7.32c1.01,0,1.83.82,1.83,1.83s-.82,1.83-1.83,1.83Z"/>
    <path class="st0" d="M9.63,44.54H2.31c-1.01,0-1.83-.82-1.83-1.83s.82-1.83,1.83-1.83h7.32c1.01,0,1.83.82,1.83,1.83s-.82,1.83-1.83,1.83Z"/>
  </g>
</svg>